<svg xmlns="http://www.w3.org/2000/svg" width="1080" height="760" viewBox="0 0 1080 760" font-family="'SFMono-Regular','Consolas','Liberation Mono',monospace">
<rect width="1080" height="760" fill="#0d1117"/>
<text x="92" y="34" fill="#c9d1d9" font-size="21" font-weight="bold">THE ATLAS — certified game-space</text>
<text x="92" y="56" fill="#8b949e" font-size="12">each point is a certified game; axes are its deterministic behaviour descriptors; dark cells are unexplored territory</text>
<rect x="92" y="78" width="688" height="590" fill="#161b22" stroke="#30363d" stroke-width="1"/>
<rect x="92.0" y="569.7" width="114.7" height="98.3" fill="#12261a"/>
<rect x="92.0" y="471.3" width="114.7" height="98.3" fill="#12261a"/>
<rect x="92.0" y="373.0" width="114.7" height="98.3" fill="#12261a"/>
<rect x="92.0" y="274.7" width="114.7" height="98.3" fill="#12261a"/>
<rect x="206.7" y="274.7" width="114.7" height="98.3" fill="#12261a"/>
<rect x="321.3" y="274.7" width="114.7" height="98.3" fill="#12261a"/>
<rect x="436.0" y="274.7" width="114.7" height="98.3" fill="#12261a"/>
<rect x="550.7" y="274.7" width="114.7" height="98.3" fill="#12261a"/>
<rect x="92.0" y="78.0" width="114.7" height="98.3" fill="#12261a"/>
<line x1="92.0" y1="78" x2="92.0" y2="668" stroke="#21262d" stroke-width="1"/>
<line x1="92" y1="78.0" x2="780" y2="78.0" stroke="#21262d" stroke-width="1"/>
<line x1="206.7" y1="78" x2="206.7" y2="668" stroke="#21262d" stroke-width="1"/>
<line x1="92" y1="176.3" x2="780" y2="176.3" stroke="#21262d" stroke-width="1"/>
<line x1="321.3" y1="78" x2="321.3" y2="668" stroke="#21262d" stroke-width="1"/>
<line x1="92" y1="274.7" x2="780" y2="274.7" stroke="#21262d" stroke-width="1"/>
<line x1="436.0" y1="78" x2="436.0" y2="668" stroke="#21262d" stroke-width="1"/>
<line x1="92" y1="373.0" x2="780" y2="373.0" stroke="#21262d" stroke-width="1"/>
<line x1="550.7" y1="78" x2="550.7" y2="668" stroke="#21262d" stroke-width="1"/>
<line x1="92" y1="471.3" x2="780" y2="471.3" stroke="#21262d" stroke-width="1"/>
<line x1="665.3" y1="78" x2="665.3" y2="668" stroke="#21262d" stroke-width="1"/>
<line x1="92" y1="569.7" x2="780" y2="569.7" stroke="#21262d" stroke-width="1"/>
<line x1="780.0" y1="78" x2="780.0" y2="668" stroke="#21262d" stroke-width="1"/>
<line x1="92" y1="668.0" x2="780" y2="668.0" stroke="#21262d" stroke-width="1"/>
<text x="92.0" y="686" fill="#8b949e" font-size="10" text-anchor="middle">0</text>
<text x="84" y="671.0" fill="#8b949e" font-size="10" text-anchor="end">1.3</text>
<text x="206.7" y="686" fill="#8b949e" font-size="10" text-anchor="middle">1.7e+03</text>
<text x="84" y="572.7" fill="#8b949e" font-size="10" text-anchor="end">1.5</text>
<text x="321.3" y="686" fill="#8b949e" font-size="10" text-anchor="middle">3.4e+03</text>
<text x="84" y="474.3" fill="#8b949e" font-size="10" text-anchor="end">1.6</text>
<text x="436.0" y="686" fill="#8b949e" font-size="10" text-anchor="middle">5.1e+03</text>
<text x="84" y="376.0" fill="#8b949e" font-size="10" text-anchor="end">1.8</text>
<text x="550.7" y="686" fill="#8b949e" font-size="10" text-anchor="middle">6.8e+03</text>
<text x="84" y="277.7" fill="#8b949e" font-size="10" text-anchor="end">2</text>
<text x="665.3" y="686" fill="#8b949e" font-size="10" text-anchor="middle">8.5e+03</text>
<text x="84" y="179.3" fill="#8b949e" font-size="10" text-anchor="end">2.2</text>
<text x="780.0" y="686" fill="#8b949e" font-size="10" text-anchor="middle">1e+04</text>
<text x="84" y="81.0" fill="#8b949e" font-size="10" text-anchor="end">2.4</text>
<text x="436" y="720" fill="#c9d1d9" font-size="13" text-anchor="middle">solver effort (tree node expansions) →</text>
<text x="26" y="373" fill="#c9d1d9" font-size="13" text-anchor="middle" transform="rotate(-90 26 373)">witness action entropy (bits) →</text>
<circle cx="123.8" cy="594.2" r="4.0" fill="#3fb950" fill-opacity="0.82" stroke="#0d1117" stroke-width="1"/>
<circle cx="130.8" cy="636.4" r="4.1" fill="#3fb950" fill-opacity="0.82" stroke="#0d1117" stroke-width="1"/>
<circle cx="93.3" cy="320.4" r="4.6" fill="#3fb950" fill-opacity="0.82" stroke="#0d1117" stroke-width="1"/>
<circle cx="559.3" cy="294.9" r="12.0" fill="#3fb950" fill-opacity="0.82" stroke="#0d1117" stroke-width="1"/>
<circle cx="301.0" cy="342.2" r="8.1" fill="#3fb950" fill-opacity="0.82" stroke="#0d1117" stroke-width="1"/>
<circle cx="493.9" cy="279.9" r="11.3" fill="#3fb950" fill-opacity="0.82" stroke="#0d1117" stroke-width="1"/>
<circle cx="96.7" cy="313.5" r="4.9" fill="#3fb950" fill-opacity="0.82" stroke="#0d1117" stroke-width="1"/>
<circle cx="231.5" cy="289.1" r="11.5" fill="#3fb950" fill-opacity="0.82" stroke="#0d1117" stroke-width="1"/>
<circle cx="321.9" cy="295.5" r="7.8" fill="#3fb950" fill-opacity="0.82" stroke="#0d1117" stroke-width="1"/>
<circle cx="124.4" cy="278.6" r="11.1" fill="#58a6ff" fill-opacity="0.82" stroke="#0d1117" stroke-width="1"/>
<circle cx="200.4" cy="390.1" r="4.8" fill="#3fb950" fill-opacity="0.82" stroke="#0d1117" stroke-width="1"/>
<circle cx="128.6" cy="292.1" r="7.1" fill="#3fb950" fill-opacity="0.82" stroke="#0d1117" stroke-width="1"/>
<circle cx="96.6" cy="142.3" r="6.6" fill="#3fb950" fill-opacity="0.82" stroke="#0d1117" stroke-width="1"/>
<circle cx="164.6" cy="294.2" r="10.8" fill="#3fb950" fill-opacity="0.82" stroke="#0d1117" stroke-width="1"/>
<circle cx="106.6" cy="283.6" r="9.4" fill="#3fb950" fill-opacity="0.82" stroke="#0d1117" stroke-width="1"/>
<circle cx="319.0" cy="289.7" r="11.8" fill="#3fb950" fill-opacity="0.82" stroke="#0d1117" stroke-width="1"/>
<circle cx="493.9" cy="279.9" r="11.3" fill="#3fb950" fill-opacity="0.82" stroke="#0d1117" stroke-width="1"/>
<circle cx="186.2" cy="521.4" r="4.1" fill="#3fb950" fill-opacity="0.82" stroke="#0d1117" stroke-width="1"/>
<circle cx="127.1" cy="109.6" r="6.0" fill="#3fb950" fill-opacity="0.82" stroke="#0d1117" stroke-width="1"/>
<text x="130.8" y="587.2" fill="#c9d1d9" font-size="9" fill-opacity="0.88">a_3d_lander_gu…</text>
<text x="137.9" y="649.5" fill="#c9d1d9" font-size="9" fill-opacity="0.88">a_3d_obstacle_…</text>
<text x="101.0" y="334.0" fill="#c9d1d9" font-size="9" fill-opacity="0.88">cross_a_busy_m…</text>
<text x="574.3" y="279.9" fill="#c9d1d9" font-size="9" fill-opacity="0.88">drive_a_cart_o…</text>
<text x="312.1" y="359.3" fill="#c9d1d9" font-size="9" fill-opacity="0.88">fly_a_craft_th…</text>
<text x="508.2" y="300.2" fill="#c9d1d9" font-size="9" fill-opacity="0.88">hop_across_a_c…</text>
<text x="104.6" y="305.5" fill="#c9d1d9" font-size="9" fill-opacity="0.88">knock_a_puck_p…</text>
<text x="246.0" y="309.6" fill="#c9d1d9" font-size="9" fill-opacity="0.88">losable</text>
<text x="332.7" y="284.7" fill="#c9d1d9" font-size="9" fill-opacity="0.88">mini_collect</text>
<text x="138.6" y="298.8" fill="#c9d1d9" font-size="9" fill-opacity="0.88">mini_collect_3d</text>
<text x="208.2" y="382.3" fill="#c9d1d9" font-size="9" fill-opacity="0.88">pilot_a_drone_…</text>
<text x="138.7" y="282.0" fill="#c9d1d9" font-size="9" fill-opacity="0.88">push_a_heavy_b…</text>
<text x="106.2" y="157.9" fill="#c9d1d9" font-size="9" fill-opacity="0.88">push_a_heavy_b…</text>
<text x="178.4" y="280.4" fill="#c9d1d9" font-size="9" fill-opacity="0.88">side_view_plat…</text>
<text x="118.9" y="302.0" fill="#c9d1d9" font-size="9" fill-opacity="0.88">softlock_maze</text>
<text x="333.8" y="274.9" fill="#c9d1d9" font-size="9" fill-opacity="0.88">softlock_pit</text>
<text x="508.2" y="300.2" fill="#c9d1d9" font-size="9" fill-opacity="0.88">steer_a_car_in…</text>
<text x="193.4" y="514.2" fill="#c9d1d9" font-size="9" fill-opacity="0.88">steer_a_car_in…</text>
<text x="136.1" y="100.7" fill="#c9d1d9" font-size="9" fill-opacity="0.88">top_down_maze_…</text>
<text x="804" y="92" fill="#c9d1d9" font-size="13" font-weight="bold">COVERAGE</text>
<text x="804" y="116" fill="#3fb950" font-size="24" font-weight="bold">25%</text>
<text x="804" y="134" fill="#8b949e" font-size="10.5">9 / 36 cells colonised (6×6 grid)</text>
<text x="804" y="150" fill="#8b949e" font-size="10.5">19 games placed, 6 off-map</text>
<text x="804" y="182" fill="#c9d1d9" font-size="12" font-weight="bold">dimension</text>
<circle cx="810" cy="196" r="5" fill="#3fb950"/>
<text x="822" y="200" fill="#8b949e" font-size="11">2D</text>
<circle cx="810" cy="213" r="5" fill="#58a6ff"/>
<text x="822" y="217" fill="#8b949e" font-size="11">3D</text>
<circle cx="810" cy="230" r="5" fill="#6e7681"/>
<text x="822" y="234" fill="#8b949e" font-size="11">?</text>
<text x="804" y="265" fill="#c9d1d9" font-size="12" font-weight="bold">size = witness-len</text>
<text x="804" y="297" fill="#c9d1d9" font-size="12" font-weight="bold">emptiest frontiers</text>
<text x="804" y="315" fill="#8b949e" font-size="10">• mid solver-effort × low entropy</text>
<text x="804" y="330" fill="#8b949e" font-size="10">• high solver-effort × low entropy</text>
<text x="804" y="345" fill="#8b949e" font-size="10">• mid solver-effort × high entropy</text>
<text x="804" y="360" fill="#8b949e" font-size="10">• high solver-effort × high entropy</text>
</svg>